<?xml version="1.0" standalone="no"?><!DOCTYPE svg PUBLIC "-//W3C//DTD SVG 1.1//EN" "http://www.w3.org/Graphics/SVG/1.1/DTD/svg11.dtd"><svg t="1696815885551" class="icon" viewBox="0 0 1024 1024" version="1.1" xmlns="http://www.w3.org/2000/svg" p-id="1688" xmlns:xlink="http://www.w3.org/1999/xlink" width="200" height="200"><path d="M703.994 106.67c-92.246 0-175.37 39.06-233.742 101.496-31.31-36.03-77.436-58.81-128.934-58.81-94.248 0-170.65 76.404-170.65 170.65 0 1.438 0.032 2.844 0.062 4.25C73.326 344.006 0.016 430.098 0.016 533.344c0 117.806 95.498 213.304 213.306 213.304h490.672c176.712 0 319.99-143.244 319.99-319.988 0-176.714-143.276-319.99-319.99-319.99z" fill="#CCD1D9" p-id="1689"></path><path d="M907.924 180.074c45.844 55.372 73.376 126.434 73.376 203.93 0 176.712-143.244 319.99-319.99 319.99H170.668c-48.032 0-92.342-15.876-127.996-42.656 38.904 51.812 100.872 85.31 170.65 85.31h490.672c176.712 0 319.99-143.244 319.99-319.988 0-99.216-45.186-187.902-116.06-246.586z" fill="#AAB2BC" p-id="1690"></path><path d="M638.624 831.99c-3.626 0-7.282-0.906-10.626-2.844L332.38 658.462c-10.188-5.876-13.686-18.936-7.812-29.124 5.906-10.218 18.938-13.718 29.156-7.812l295.584 170.65c10.218 5.906 13.688 18.938 7.812 29.156-3.936 6.846-11.124 10.658-18.496 10.658z" fill="#4A89DC" p-id="1691"></path><path d="M398.472 693.338c-9.438 0-18.062-6.282-20.594-15.812l-15.626-58.28c-3.06-11.404 3.688-23.092 15.094-26.124 11.376-3.062 23.062 3.688 26.126 15.062l15.594 58.278c3.062 11.406-3.688 23.094-15.062 26.126-1.844 0.5-3.718 0.75-5.532 0.75z" fill="#4A89DC" p-id="1692"></path><path d="M340.194 708.962c-9.438 0-18.062-6.312-20.592-15.844-3.062-11.376 3.686-23.062 15.06-26.126l58.28-15.594c11.406-3.062 23.094 3.688 26.126 15.062 3.062 11.406-3.688 23.094-15.062 26.126l-58.28 15.626c-1.846 0.5-3.72 0.75-5.532 0.75z" fill="#4A89DC" p-id="1693"></path><path d="M598.81 858.272c-9.406 0-18.032-6.282-20.562-15.812l-15.626-58.282c-3.062-11.376 3.688-23.06 15.062-26.124 11.406-3.062 23.094 3.718 26.156 15.092l15.594 58.282c3.062 11.376-3.688 23.062-15.062 26.126a21.48 21.48 0 0 1-5.562 0.718z" fill="#4A89DC" p-id="1694"></path><path d="M583.216 799.99a21.332 21.332 0 0 1-20.594-15.812c-3.062-11.376 3.688-23.06 15.062-26.124l58.312-15.626c11.374-3.032 23.06 3.718 26.124 15.094 3.032 11.374-3.718 23.06-15.094 26.124l-58.28 15.626c-1.842 0.5-3.716 0.718-5.53 0.718z" fill="#4A89DC" p-id="1695"></path><path d="M343.068 831.99a21.334 21.334 0 0 1-18.5-10.656c-5.874-10.218-2.376-23.25 7.812-29.156l295.618-170.65c10.188-5.906 23.248-2.406 29.124 7.812 5.876 10.188 2.406 23.248-7.812 29.124l-295.584 170.684a21.316 21.316 0 0 1-10.658 2.842z" fill="#4A89DC" p-id="1696"></path><path d="M398.504 799.99c-1.844 0-3.688-0.218-5.562-0.718l-58.28-15.626c-11.376-3.062-18.124-14.75-15.06-26.124 3.03-11.376 14.716-18.126 26.124-15.094l58.28 15.626c11.376 3.062 18.126 14.748 15.062 26.124-2.532 9.53-11.158 15.812-20.564 15.812z" fill="#4A89DC" p-id="1697"></path><path d="M382.878 858.272c-1.844 0-3.688-0.218-5.532-0.718-11.406-3.062-18.154-14.75-15.094-26.126l15.626-58.282c3.032-11.374 14.75-18.154 26.126-15.092s18.126 14.748 15.062 26.124l-15.594 58.282c-2.562 9.53-11.186 15.812-20.594 15.812z" fill="#4A89DC" p-id="1698"></path><path d="M641.53 708.962a21.06 21.06 0 0 1-5.532-0.75l-58.312-15.626c-11.376-3.032-18.126-14.718-15.062-26.126 3.032-11.376 14.75-18.126 26.126-15.062l58.28 15.594c11.376 3.062 18.126 14.75 15.094 26.126a21.392 21.392 0 0 1-20.594 15.844z" fill="#4A89DC" p-id="1699"></path><path d="M583.248 693.338c-1.844 0-3.688-0.25-5.562-0.75-11.376-3.032-18.126-14.718-15.062-26.126l15.626-58.278c3.032-11.376 14.75-18.126 26.126-15.062 11.376 3.032 18.126 14.718 15.062 26.124l-15.594 58.28c-2.564 9.53-11.19 15.812-20.596 15.812z" fill="#4A89DC" p-id="1700"></path><path d="M490.844 917.33c-11.78 0-21.342-9.562-21.342-21.342V554.654c0-11.78 9.562-21.31 21.342-21.31 11.782 0 21.344 9.532 21.344 21.31v341.334c0 11.78-9.562 21.342-21.344 21.342z" fill="#5D9CEC" p-id="1701"></path><path d="M490.844 639.996a21.346 21.346 0 0 1-15.092-6.25c-8.312-8.344-8.312-21.842 0-30.154l42.688-42.688c8.31-8.31 21.842-8.31 30.154 0a21.332 21.332 0 0 1 0 30.188l-42.656 42.654a21.3 21.3 0 0 1-15.094 6.25z" fill="#5D9CEC" p-id="1702"></path><path d="M490.844 639.996a21.346 21.346 0 0 1-15.092-6.25l-42.654-42.654a21.332 21.332 0 0 1 0-30.188c8.342-8.31 21.842-8.31 30.154 0l42.686 42.688c8.314 8.312 8.314 21.81 0 30.154a21.3 21.3 0 0 1-15.094 6.25z" fill="#5D9CEC" p-id="1703"></path><path d="M448.19 895.988a21.294 21.294 0 0 1-15.092-6.25c-8.344-8.342-8.344-21.842 0-30.154l42.654-42.688c8.342-8.312 21.842-8.312 30.186 0 8.314 8.344 8.314 21.844 0 30.188l-42.686 42.654a21.28 21.28 0 0 1-15.062 6.25z" fill="#5D9CEC" p-id="1704"></path><path d="M533.5 895.988a21.268 21.268 0 0 1-15.06-6.25l-42.688-42.654c-8.312-8.344-8.312-21.844 0-30.188 8.342-8.312 21.842-8.312 30.186 0l42.656 42.688c8.344 8.312 8.344 21.812 0 30.154a21.3 21.3 0 0 1-15.094 6.25z" fill="#5D9CEC" p-id="1705"></path></svg>